/vscmnt/brussel_pixiu_data/_data_brussel/112/vsc11236/PredSimResults/SUBJ06mtu3D/worker6.mot
version=1
nRows=5
nColumns=50
inDegrees=yes
endheader
                time	         pelvis_tilt	         pelvis_list	     pelvis_rotation	           pelvis_tx	           pelvis_ty	           pelvis_tz	       hip_flexion_r	     hip_adduction_r	      hip_rotation_r	        knee_angle_r	       ankle_angle_r	         mtp_angle_r	       hip_flexion_l	     hip_adduction_l	      hip_rotation_l	        knee_angle_l	       ankle_angle_l	         mtp_angle_l	    lumbar_extension	      lumbar_bending	     lumbar_rotation	 ercspn_r/activation	 intobl_r/activation	 extobl_r/activation	    abd_r/activation	    add_r/activation	hamstrings_r/activation	bifemsh_r/activation	glut_max_r/activation	iliopsoas_r/activation	rect_fem_r/activation	  vasti_r/activation	gastroc_r/activation	 soleus_r/activation	tib_ant_r/activation	 ercspn_l/activation	 intobl_l/activation	 extobl_l/activation	    abd_l/activation	    add_l/activation	hamstrings_l/activation	bifemsh_l/activation	glut_max_l/activation	iliopsoas_l/activation	rect_fem_l/activation	  vasti_l/activation	gastroc_l/activation	 soleus_l/activation	tib_ant_l/activation	
          1.24052087	         -6.43838946	          0.29277611	          2.44248169	          1.38938338	          0.93146296	         -0.00990830	         32.43232186	         -1.84683822	         -3.29910341	         -8.72154130	          2.37621008	          0.22672421	        -10.36412728	          0.18895355	         -7.90562751	        -10.90690374	          5.90044236	         35.34596057	         -5.74210363	         -0.93488548	         -6.08129370	          0.18395264	          0.10700526	          0.01000290	          0.01000021	          0.38822986	          0.10163192	          0.12051921	          0.10644481	          0.09016054	          0.01206424	          0.01000176	          0.01000722	          0.01000092	          0.45279768	          0.14359595	          0.01000092	          0.01000108	          0.06994363	          0.01002529	          0.01043588	          0.12731212	          0.03062291	          0.51745039	          0.02122613	          0.01386319	          0.30494360	          0.31861210	          0.01903364	
          1.25292608	         -6.52083159	          0.40169680	          2.44877870	          1.40652559	          0.92973989	         -0.00855961	         32.37228164	         -1.79441075	         -3.30989416	        -10.27837910	          2.04500026	          0.19760811	        -10.59574866	          0.08497989	         -8.32362096	        -12.17754325	          4.87851599	         37.18454651	         -5.37813316	         -0.69616501	         -6.57708005	          0.15243670	          0.08867279	          0.01000327	          0.01273028	          0.32171652	          0.10553720	          0.09987310	          0.14388257	          0.07471341	          0.01000434	          0.01001012	          0.01594096	          0.01510331	          0.48177598	          0.14147560	          0.01000166	          0.01000372	          0.05796024	          0.01206712	          0.01744665	          0.10550167	          0.02537768	          0.50823397	          0.01759138	          0.01528643	          0.25270016	          0.29606308	          0.01577265	
          1.26533129	         -6.57992906	          0.45434892	          2.43653424	          1.42396439	          0.92824755	         -0.00710332	         32.10544638	         -1.75548249	         -3.35192862	        -11.60235746	          1.68936672	          0.19352236	        -10.61998817	         -0.12961235	         -8.73788827	        -13.88335183	          3.75269331	         39.01923282	         -5.00415676	         -0.39711697	         -7.02786020	          0.16752863	          0.07348096	          0.01000242	          0.08256056	          0.30685473	          0.10014384	          0.08276462	          0.15436418	          0.06191285	          0.01000231	          0.01818782	          0.01321040	          0.01251589	          0.55349792	          0.13031084	          0.01000056	          0.01000155	          0.04802995	          0.01001395	          0.01448830	          0.08742888	          0.02103005	          0.50656133	          0.01457961	          0.01266826	          0.20940523	          0.27183158	          0.01307038	
          1.27773650	         -6.61614785	          0.48655677	          2.40055238	          1.44143314	          0.92710174	         -0.00553054	         31.73688999	         -1.70822167	         -3.48835062	        -12.73866556	          1.12767501	          0.17503364	        -10.35702080	         -0.42765517	         -9.15432991	        -16.12749553	          2.47009262	         40.80584286	         -4.65440231	         -0.07950085	         -7.42429217	          0.15887987	          0.06089169	          0.01000320	          0.11976134	          0.30738693	          0.10002687	          0.06858769	          0.14287772	          0.05130540	          0.01000199	          0.07695841	          0.01094806	          0.01037196	          0.60949246	          0.14990725	          0.01000094	          0.01000161	          0.03980101	          0.01002035	          0.01482174	          0.07245285	          0.01742743	          0.46771871	          0.01208356	          0.01050086	          0.17352789	          0.22910372	          0.01083115	
          1.29014171	         -6.63137487	          0.47628317	          2.35138129	          1.45874237	          0.92642949	         -0.00386422	         31.29089216	         -1.61192942	         -3.63469229	        -13.77659032	          0.72143990	          0.13647324	         -9.75752694	         -0.84382380	         -9.56602892	        -18.95587886	          1.00186611	         42.38962999	         -4.34656817	          0.28045177	         -7.76984741	          0.14363330	          0.05045928	          0.01000319	          0.15849147	          0.26020456	          0.09654440	          0.05683948	          0.15587855	          0.04251533	          0.01000201	          0.14384929	          0.01000414	          0.01000150	          0.64617277	          0.18645793	          0.01000151	          0.01000182	          0.03298192	          0.02131564	          0.06590959	          0.06004798	          0.01444193	          0.41552040	          0.01001576	          0.01000126	          0.14379739	          0.18985169	          0.01000044	
